<svg xmlns="http://www.w3.org/2000/svg" xmlns:xlink="http://www.w3.org/1999/xlink" width="272" height="295" version="1.1" viewBox="0 0 272 295"><title>bla</title><desc>Created with Sketch.</desc><defs><polygon id="path-1" points="0 0 271 0 271 17 0 17"/><path id="path-3" d="M9.035156,16.183594 L267.703125,16.390625 C267.703125,16.390625 270.785156,16.390625 270.746094,12.722656 C270.703125,9.058594 267.621094,9.433594 267.621094,9.433594 L262.953125,9.347656 L262.953125,0.972656 L8.535156,0.847656 L8.535156,9.390625 L3.621094,9.433594 C3.621094,9.433594 0.703125,9.140625 0.785156,13.015625 C0.855469,16.222656 3.785156,16.140625 3.785156,16.140625 L9.035156,16.183594 Z"/><path id="path-5" d="M9.035156,16.183594 L267.703125,16.390625 C267.703125,16.390625 270.785156,16.390625 270.746094,12.722656 C270.703125,9.058594 267.621094,9.433594 267.621094,9.433594 L262.953125,9.347656 L262.953125,0.972656 L8.535156,0.847656 L8.535156,9.390625 L3.621094,9.433594 C3.621094,9.433594 0.703125,9.140625 0.785156,13.015625 C0.855469,16.222656 3.785156,16.140625 3.785156,16.140625 L9.035156,16.183594"/><linearGradient id="linearGradient-7" x1="50.008%" x2="50.008%" y1="99.996%" y2=".009%"><stop offset="0%" stop-color="#231F20"/><stop offset="25%" stop-color="#231F20"/><stop offset="37.5%" stop-color="#231F20"/><stop offset="40.625%" stop-color="#231F20"/><stop offset="41.406%" stop-color="#231F20"/><stop offset="41.797%" stop-color="#252122"/><stop offset="42.188%" stop-color="#262223"/><stop offset="42.578%" stop-color="#2A2627"/><stop offset="42.969%" stop-color="#2D2A2B"/><stop offset="43.359%" stop-color="#312D2E"/><stop offset="43.75%" stop-color="#343031"/><stop offset="44.141%" stop-color="#373434"/><stop offset="44.531%" stop-color="#3A3738"/><stop offset="44.922%" stop-color="#3D3A3B"/><stop offset="45.313%" stop-color="#403D3E"/><stop offset="45.703%" stop-color="#434040"/><stop offset="46.094%" stop-color="#464243"/><stop offset="46.484%" stop-color="#484546"/><stop offset="46.875%" stop-color="#4B4849"/><stop offset="47.266%" stop-color="#4E4A4B"/><stop offset="47.656%" stop-color="#504D4E"/><stop offset="48.047%" stop-color="#524F50"/><stop offset="48.438%" stop-color="#555252"/><stop offset="48.828%" stop-color="#575455"/><stop offset="49.219%" stop-color="#595657"/><stop offset="49.609%" stop-color="#5B5859"/><stop offset="50%" stop-color="#5D5A5B"/><stop offset="50.391%" stop-color="#5F5C5D"/><stop offset="50.781%" stop-color="#615E5F"/><stop offset="51.172%" stop-color="#636061"/><stop offset="51.563%" stop-color="#656263"/><stop offset="51.953%" stop-color="#676464"/><stop offset="52.344%" stop-color="#686666"/><stop offset="52.734%" stop-color="#6A6768"/><stop offset="53.125%" stop-color="#6B6969"/><stop offset="53.516%" stop-color="#6D6A6B"/><stop offset="53.906%" stop-color="#6E6C6D"/><stop offset="54.297%" stop-color="#706D6E"/><stop offset="54.688%" stop-color="#716F6F"/><stop offset="55.078%" stop-color="#737071"/><stop offset="55.469%" stop-color="#747172"/><stop offset="55.859%" stop-color="#757373"/><stop offset="56.25%" stop-color="#767475"/><stop offset="56.641%" stop-color="#787576"/><stop offset="57.031%" stop-color="#797677"/><stop offset="57.422%" stop-color="#7A7778"/><stop offset="57.813%" stop-color="#7B7879"/><stop offset="58.203%" stop-color="#7C797A"/><stop offset="58.594%" stop-color="#7D7A7B"/><stop offset="58.984%" stop-color="#7E7B7C"/><stop offset="59.375%" stop-color="#7F7C7D"/><stop offset="59.766%" stop-color="#7F7D7E"/><stop offset="60.156%" stop-color="#807E7F"/><stop offset="60.547%" stop-color="#817F7F"/><stop offset="60.938%" stop-color="#828080"/><stop offset="61.328%" stop-color="#838081"/><stop offset="61.719%" stop-color="#838182"/><stop offset="62.109%" stop-color="#848282"/><stop offset="62.5%" stop-color="#858283"/><stop offset="62.891%" stop-color="#858384"/><stop offset="63.281%" stop-color="#868484"/><stop offset="63.672%" stop-color="#868485"/><stop offset="64.063%" stop-color="#878585"/><stop offset="64.453%" stop-color="#888586"/><stop offset="64.844%" stop-color="#888686"/><stop offset="65.234%" stop-color="#898687"/><stop offset="65.625%" stop-color="#898787"/><stop offset="66.016%" stop-color="#898788"/><stop offset="66.406%" stop-color="#8A8888"/><stop offset="67.188%" stop-color="#8A8889"/><stop offset="67.969%" stop-color="#8B8989"/><stop offset="68.75%" stop-color="#8C8A8A"/><stop offset="69.531%" stop-color="#8C8A8B"/><stop offset="70.313%" stop-color="#8D8B8B"/><stop offset="71.094%" stop-color="#8D8B8C"/><stop offset="71.875%" stop-color="#8E8C8C"/><stop offset="73.438%" stop-color="#8E8C8D"/><stop offset="75%" stop-color="#8F8D8E"/><stop offset="78.125%" stop-color="#908E8E"/><stop offset="81.25%" stop-color="#908E8F"/><stop offset="87.5%" stop-color="#918F8F"/><stop offset="100%" stop-color="#918F8F"/></linearGradient></defs><g id="Page-1" fill="none" fill-rule="evenodd" stroke="none" stroke-width="1"><g id="bla" transform="translate(-130.000000, -12.000000)"><g id="Clipped" transform="translate(130.000000, 12.000000)"><mask id="mask-2" fill="#fff"><use xlink:href="#path-1"/></mask><g mask="url(#mask-2)"><mask id="mask-4" fill="#fff"><use xlink:href="#path-3"/></mask><g mask="url(#mask-4)"><mask id="mask-6" fill="#fff"><use xlink:href="#path-5"/></mask><polygon id="Shape" fill="url(#linearGradient-7)" fill-rule="nonzero" points=".703 16.391 270.785 16.391 270.785 .848 .703 .848" mask="url(#mask-6)"/></g></g></g><path id="Shape" stroke="#231F20" d="M139.035156,13.0546874 L397.703125,12.8476562 C397.703125,12.8476562 400.785156,12.8476562 400.746094,16.515625 C400.703125,20.1796874 397.621094,19.8046874 397.621094,19.8046874 L392.953125,19.890625 L392.953125,28.265625 L138.535156,28.390625 L138.535156,19.8476562 L133.621094,19.8046874 C133.621094,19.8046874 130.703125,20.0976562 130.785156,16.2226562 C130.855469,13.015625 133.785156,13.0976562 133.785156,13.0976562 L139.035156,13.0546874 Z" transform="translate(265.764960, 20.619141) scale(-1, 1) rotate(-180.000000) translate(-265.764960, -20.619141)"/><path id="Shape" stroke="#231F20" stroke-width="2.5" d="M265,204.265625 L265,25.265625" transform="translate(266.250000, 114.765625) scale(-1, 1) rotate(-180.000000) translate(-266.250000, -114.765625)"/><path id="Shape" stroke="#231F20" stroke-width="2.5" d="M161.283594,204 L161.283594,25" transform="translate(162.533594, 114.500000) scale(-1, 1) rotate(-180.000000) translate(-162.533594, -114.500000)"/><path id="Shape" stroke="#231F20" stroke-width="2.5" d="M369,204.265625 L369,25.265625" transform="translate(370.250000, 114.765625) scale(-1, 1) rotate(-180.000000) translate(-370.250000, -114.765625)"/><path id="Shape" fill="#656263" fill-rule="nonzero" d="M157.871094,205.140625 C157.871094,205.140625 160.308594,205.453125 161.308594,205.453125 C162.308594,205.453125 164.433594,205.078125 164.433594,205.078125 L164.433594,257.515625 L157.808594,257.515625 L157.871094,205.140625"/><path id="Shape" stroke="#231F20" d="M157.871094,257.453125 C157.871094,257.453125 160.308594,257.140625 161.308594,257.140625 C162.308594,257.140625 164.433594,257.515625 164.433594,257.515625 L164.433594,205.078125 L157.808594,205.078125 L157.871094,257.453125 Z" transform="translate(161.121094, 231.296875) scale(-1, 1) rotate(-180.000000) translate(-161.121094, -231.296875)"/><path id="Shape" fill="#656263" fill-rule="nonzero" d="M261.871094,205.140625 C261.871094,205.140625 264.308594,205.453125 265.308594,205.453125 C266.308594,205.453125 268.433594,205.078125 268.433594,205.078125 L268.433594,257.515625 L261.808594,257.515625 L261.871094,205.140625"/><path id="Shape" stroke="#231F20" d="M261.871094,257.453125 C261.871094,257.453125 264.308594,257.140625 265.308594,257.140625 C266.308594,257.140625 268.433594,257.515625 268.433594,257.515625 L268.433594,205.078125 L261.808594,205.078125 L261.871094,257.453125 Z" transform="translate(265.121094, 231.296875) scale(-1, 1) rotate(-180.000000) translate(-265.121094, -231.296875)"/><path id="Shape" fill="#656263" fill-rule="nonzero" d="M366.871094,205.140625 C366.871094,205.140625 369.308594,205.453125 370.308594,205.453125 C371.308594,205.453125 373.433594,205.078125 373.433594,205.078125 L373.433594,257.515625 L366.808594,257.515625 L366.871094,205.140625"/><path id="Shape" stroke="#231F20" d="M366.871094,257.453125 C366.871094,257.453125 369.308594,257.140625 370.308594,257.140625 C371.308594,257.140625 373.433594,257.515625 373.433594,257.515625 L373.433594,205.078125 L366.808594,205.078125 L366.871094,257.453125 Z" transform="translate(370.121094, 231.296875) scale(-1, 1) rotate(-180.000000) translate(-370.121094, -231.296875)"/><path id="Shape" fill="#656263" fill-rule="nonzero" d="M188.871094,298.890625 C189.199219,296.8125 189.308594,294.796875 189.183594,292.609375 C188.113281,273.871094 173.683594,257.140625 161.183594,257.140625 C148.933594,257.140625 135.578125,272.367188 132.933594,292.640625 C132.746094,294.078125 132.707031,296.628906 132.972656,298.578125 L188.871094,298.890625"/><path id="Shape" stroke="#231F20" d="M188.871094,257.140625 C189.199219,259.21875 189.308594,261.234375 189.183594,263.421875 C188.113281,282.160156 173.683594,298.890625 161.183594,298.890625 C148.933594,298.890625 135.578125,283.664062 132.933594,263.390625 C132.746094,261.953125 132.707031,259.402344 132.972656,257.453125 L188.871094,257.140625 Z" transform="translate(161.008549, 278.015625) scale(-1, 1) rotate(-180.000000) translate(-161.008549, -278.015625)"/><path id="Shape" fill="#ABAAAA" fill-rule="nonzero" d="M188.933594,298.640625 C188.933594,302.574219 176.425781,305.765625 160.996094,305.765625 C145.566406,305.765625 133.058594,302.574219 133.058594,298.640625 C133.058594,294.707031 145.566406,291.515625 160.996094,291.515625 C176.425781,291.515625 188.933594,294.707031 188.933594,298.640625"/><path id="Shape" stroke="#231F20" d="M188.933594,298.640625 C188.933594,294.707031 176.425781,291.515625 160.996094,291.515625 C145.566406,291.515625 133.058594,294.707031 133.058594,298.640625 C133.058594,302.574219 145.566406,305.765625 160.996094,305.765625 C176.425781,305.765625 188.933594,302.574219 188.933594,298.640625 Z" transform="translate(160.996094, 298.640625) scale(-1, 1) rotate(-180.000000) translate(-160.996094, -298.640625)"/><path id="Shape" fill="#FFF" fill-rule="nonzero" d="M170.332031,263.789062 C165.085938,264.195312 166.941406,269.296875 166.941406,269.296875 C166.941406,269.296875 171.996094,269.246094 176.199219,274.230469 C180.402344,279.210938 180.402344,279.210938 180.402344,279.210938 C180.402344,279.210938 174.921875,263.433594 170.332031,263.789062"/><path id="Shape" fill="#656263" fill-rule="nonzero" d="M293.105469,298.890625 C293.4375,296.8125 293.546875,294.796875 293.421875,292.609375 C292.351562,273.871094 277.921875,257.140625 265.421875,257.140625 C253.171875,257.140625 239.8125,272.367188 237.171875,292.640625 C236.980469,294.078125 236.941406,296.628906 237.210938,298.578125 L293.105469,298.890625"/><path id="Shape" stroke="#231F20" d="M293.105469,257.140625 C293.4375,259.21875 293.546875,261.234375 293.421875,263.421875 C292.351563,282.160156 277.921875,298.890625 265.421875,298.890625 C253.171875,298.890625 239.8125,283.664062 237.171875,263.390625 C236.980469,261.953125 236.941406,259.402344 237.210938,257.453125 L293.105469,257.140625 Z" transform="translate(265.245327, 278.015625) scale(-1, 1) rotate(-180.000000) translate(-265.245327, -278.015625)"/><path id="Shape" fill="#ABAAAA" fill-rule="nonzero" d="M293.171875,298.640625 C293.171875,302.574219 280.660156,305.765625 265.230469,305.765625 C249.804688,305.765625 237.296875,302.574219 237.296875,298.640625 C237.296875,294.707031 249.804688,291.515625 265.230469,291.515625 C280.660156,291.515625 293.171875,294.707031 293.171875,298.640625"/><path id="Shape" stroke="#231F20" d="M293.171875,298.640625 C293.171875,294.707031 280.660156,291.515625 265.230469,291.515625 C249.804688,291.515625 237.296875,294.707031 237.296875,298.640625 C237.296875,302.574219 249.804688,305.765625 265.230469,305.765625 C280.660156,305.765625 293.171875,302.574219 293.171875,298.640625 Z" transform="translate(265.234375, 298.640625) scale(-1, 1) rotate(-180.000000) translate(-265.234375, -298.640625)"/><path id="Shape" fill="#FFF" fill-rule="nonzero" d="M274.566406,263.789062 C269.324219,264.195312 271.179688,269.296875 271.179688,269.296875 C271.179688,269.296875 276.230469,269.246094 280.4375,274.230469 C284.640625,279.210938 284.640625,279.210938 284.640625,279.210938 C284.640625,279.210938 279.160156,263.433594 274.566406,263.789062"/><path id="Shape" fill="#656263" fill-rule="nonzero" d="M397.855469,298.890625 C398.1875,296.8125 398.296875,294.796875 398.171875,292.609375 C397.101562,273.871094 382.671875,257.140625 370.171875,257.140625 C357.921875,257.140625 344.5625,272.367188 341.921875,292.640625 C341.730469,294.078125 341.691406,296.628906 341.960938,298.578125 L397.855469,298.890625"/><path id="Shape" stroke="#231F20" d="M397.855469,257.140625 C398.1875,259.21875 398.296875,261.234375 398.171875,263.421875 C397.101563,282.160156 382.671875,298.890625 370.171875,298.890625 C357.921875,298.890625 344.5625,283.664062 341.921875,263.390625 C341.730469,261.953125 341.691406,259.402344 341.960938,257.453125 L397.855469,257.140625 Z" transform="translate(369.995327, 278.015625) scale(-1, 1) rotate(-180.000000) translate(-369.995327, -278.015625)"/><path id="Shape" fill="#ABAAAA" fill-rule="nonzero" d="M397.921875,298.640625 C397.921875,302.574219 385.410156,305.765625 369.980469,305.765625 C354.554688,305.765625 342.046875,302.574219 342.046875,298.640625 C342.046875,294.707031 354.554688,291.515625 369.980469,291.515625 C385.410156,291.515625 397.921875,294.707031 397.921875,298.640625"/><path id="Shape" stroke="#231F20" d="M397.921875,298.640625 C397.921875,294.707031 385.410156,291.515625 369.980469,291.515625 C354.554688,291.515625 342.046875,294.707031 342.046875,298.640625 C342.046875,302.574219 354.554688,305.765625 369.980469,305.765625 C385.410156,305.765625 397.921875,302.574219 397.921875,298.640625 Z" transform="translate(369.984375, 298.640625) scale(-1, 1) rotate(-180.000000) translate(-369.984375, -298.640625)"/><path id="Shape" fill="#FFF" fill-rule="nonzero" d="M379.316406,263.789062 C374.074219,264.195312 375.929688,269.296875 375.929688,269.296875 C375.929688,269.296875 380.980469,269.246094 385.1875,274.230469 C389.390625,279.210938 389.390625,279.210938 389.390625,279.210938 C389.390625,279.210938 383.910156,263.433594 379.316406,263.789062"/></g></g></svg>