<svg xmlns="http://www.w3.org/2000/svg" xmlns:xlink="http://www.w3.org/1999/xlink" width="100" height="100" version="1.1" viewBox="0 0 100 100"><title>icon</title><desc>Created with Sketch.</desc><defs><rect id="path-1" width="66" height="56" x="0" y="0" rx="3"/><mask id="mask-2" width="66" height="56" x="0" y="0" fill="#fff" maskContentUnits="userSpaceOnUse" maskUnits="objectBoundingBox"><use xlink:href="#path-1"/></mask><circle id="path-3" cx="33" cy="31" r="13"/><mask id="mask-4" width="26" height="26" x="0" y="0" fill="#fff" maskContentUnits="userSpaceOnUse" maskUnits="objectBoundingBox"><use xlink:href="#path-3"/></mask><polygon id="path-5" points="10 31 15.6 25 17 26.5 12.8 31 17 35.5 15.6 37"/><mask id="mask-6" width="7" height="12" x="0" y="0" fill="#fff" maskContentUnits="userSpaceOnUse" maskUnits="objectBoundingBox"><use xlink:href="#path-5"/></mask><polygon id="path-7" points="49 31 54.6 25 56 26.5 51.8 31 56 35.5 54.6 37"/><mask id="mask-8" width="7" height="12" x="0" y="0" fill="#fff" maskContentUnits="userSpaceOnUse" maskUnits="objectBoundingBox"><use xlink:href="#path-7"/></mask><rect id="path-9" width="34" height="58" x="37" y="6" rx="6"/><mask id="mask-10" width="34" height="58" x="0" y="0" fill="#fff" maskContentUnits="userSpaceOnUse" maskUnits="objectBoundingBox"><use xlink:href="#path-9"/></mask><circle id="path-11" cx="54" cy="35" r="11"/><mask id="mask-12" width="22" height="22" x="0" y="0" fill="#fff" maskContentUnits="userSpaceOnUse" maskUnits="objectBoundingBox"><use xlink:href="#path-11"/></mask></defs><g id="pages" fill="none" fill-rule="evenodd" stroke="none" stroke-width="1"><g id="homepage" transform="translate(-570.000000, -3990.000000)"><g id="features" transform="translate(130.000000, 3656.000000)"><g id="list" transform="translate(80.000000, 334.000000)"><g id="line"><g id="item" transform="translate(360.000000, 0.000000)"><g id="icon"><rect id="bg" width="100" height="100" x="0" y="0" fill="#F4FDFB" rx="25"/><g id="screens" transform="translate(15.000000, 18.000000)"><use id="bg" stroke="#2DDBAD" stroke-width="4" mask="url(#mask-2)" xlink:href="#path-1"/><rect id="bg" width="63" height="2" x="2" y="6" fill="#2DDBAD"/><use id="bg" stroke="#2DDBAD" stroke-width="4" mask="url(#mask-4)" xlink:href="#path-3"/><polygon id="arrow" fill="#2DDBAD" points="38 31 30 36 30 26"/><use id="arrow" fill="#2DDBAD" stroke="#2DDBAD" stroke-width="2" mask="url(#mask-6)" xlink:href="#path-5"/><use id="arrow" fill="#D8D8D8" stroke="#979797" stroke-width="2" mask="url(#mask-8)" transform="translate(52.500000, 31.000000) scale(-1, 1) translate(-52.500000, -31.000000)" xlink:href="#path-7"/><use id="bg" fill="#F4FDFB" stroke="#2DDBAD" stroke-width="4" mask="url(#mask-10)" xlink:href="#path-9"/><use id="bg" stroke="#2DDBAD" stroke-width="4" mask="url(#mask-12)" xlink:href="#path-11"/><polygon id="arrow" fill="#2DDBAD" points="58 35 52 39 52 31"/><rect id="bg" width="33" height="2" x="38" y="14" fill="#2DDBAD"/><rect id="bg" width="33" height="2" x="38" y="54" fill="#2DDBAD"/></g></g></g></g></g></g></g></g></svg>