<svg xmlns="http://www.w3.org/2000/svg" xmlns:xlink="http://www.w3.org/1999/xlink" width="100" height="100" version="1.1" viewBox="0 0 100 100"><title>icon</title><desc>Created with Sketch.</desc><defs><circle id="path-1" cx="50" cy="50" r="11"/><mask id="mask-2" width="22" height="22" x="0" y="0" fill="#fff" maskContentUnits="userSpaceOnUse" maskUnits="objectBoundingBox"><use xlink:href="#path-1"/></mask><circle id="path-3" cx="75" cy="27" r="6"/><mask id="mask-4" width="12" height="12" x="0" y="0" fill="#fff" maskContentUnits="userSpaceOnUse" maskUnits="objectBoundingBox"><use xlink:href="#path-3"/></mask><circle id="path-5" cx="25" cy="45" r="6"/><mask id="mask-6" width="12" height="12" x="0" y="0" fill="#fff" maskContentUnits="userSpaceOnUse" maskUnits="objectBoundingBox"><use xlink:href="#path-5"/></mask><circle id="path-7" cx="39" cy="75" r="6"/><mask id="mask-8" width="12" height="12" x="0" y="0" fill="#fff" maskContentUnits="userSpaceOnUse" maskUnits="objectBoundingBox"><use xlink:href="#path-7"/></mask><circle id="path-9" cx="64" cy="68" r="6"/><mask id="mask-10" width="12" height="12" x="0" y="0" fill="#fff" maskContentUnits="userSpaceOnUse" maskUnits="objectBoundingBox"><use xlink:href="#path-9"/></mask><circle id="path-11" cx="23" cy="7" r="3"/><mask id="mask-12" width="6" height="6" x="0" y="0" fill="#fff" maskContentUnits="userSpaceOnUse" maskUnits="objectBoundingBox"><use xlink:href="#path-11"/></mask><circle id="path-13" cx="62" cy="22" r="3"/><mask id="mask-14" width="6" height="6" x="0" y="0" fill="#fff" maskContentUnits="userSpaceOnUse" maskUnits="objectBoundingBox"><use xlink:href="#path-13"/></mask><circle id="path-15" cx="36" cy="56" r="3"/><mask id="mask-16" width="6" height="6" x="0" y="0" fill="#fff" maskContentUnits="userSpaceOnUse" maskUnits="objectBoundingBox"><use xlink:href="#path-15"/></mask><circle id="path-17" cx="3" cy="38" r="3"/><mask id="mask-18" width="6" height="6" x="0" y="0" fill="#fff" maskContentUnits="userSpaceOnUse" maskUnits="objectBoundingBox"><use xlink:href="#path-17"/></mask></defs><g id="pages" fill="none" fill-rule="evenodd" stroke="none" stroke-width="1"><g id="homepage" transform="translate(-930.000000, -4446.000000)"><g id="features" transform="translate(130.000000, 3656.000000)"><g id="list" transform="translate(80.000000, 334.000000)"><g id="line" transform="translate(0.000000, 456.000000)"><g id="item" transform="translate(720.000000, 0.000000)"><g id="icon"><rect id="bg" width="100" height="100" x="0" y="0" fill="#F4FDFB" rx="25"/><use id="bg" stroke="#2DDBAD" stroke-width="4" mask="url(#mask-2)" xlink:href="#path-1"/><use id="bg" stroke="#2DDBAD" stroke-width="4" mask="url(#mask-4)" xlink:href="#path-3"/><use id="bg" stroke="#2DDBAD" stroke-width="4" mask="url(#mask-6)" xlink:href="#path-5"/><use id="bg" stroke="#2DDBAD" stroke-width="4" mask="url(#mask-8)" xlink:href="#path-7"/><use id="bg" stroke="#2DDBAD" stroke-width="4" mask="url(#mask-10)" xlink:href="#path-9"/><polygon id="arrow" fill="#2DDBAD" points="54 50 48 54 48 46"/><path id="line" stroke="#2DDBAD" stroke-width="2" d="M61,63.8583984 L56.1552734,57.9238281"/><path id="line" stroke="#2DDBAD" stroke-width="2" d="M71,31 L58,43"/><g id="bg" stroke="#2DDBAD" opacity=".2" transform="translate(18.000000, 26.000000)"><use stroke-width="4" mask="url(#mask-12)" xlink:href="#path-11"/><use stroke-width="4" mask="url(#mask-14)" xlink:href="#path-13"/><use stroke-width="4" mask="url(#mask-16)" xlink:href="#path-15"/><use stroke-width="4" mask="url(#mask-18)" xlink:href="#path-17"/><path id="line" d="M42.5,45.5 L37.5,54.5"/><path id="line" d="M24.5,6.5 L52,1"/><path id="line" d="M21.5,8.5 L11.5,15.5"/><path id="line" d="M59.5,22.5 L42.5,23.5"/><path id="line" d="M4.5,39.5 L15.5,46.5"/><path id="line" d="M5.5,37.5 L22.5,29.5"/></g><path id="line" stroke="#2DDBAD" stroke-width="2" d="M30,46 L40,49"/><path id="line" stroke="#2DDBAD" stroke-width="2" d="M41,71 L46,59"/></g></g></g></g></g></g></g></svg>